<svg xmlns="http://www.w3.org/2000/svg" viewBox="0 0 512 512" role="img" aria-label="MNAnimat3D">
  <defs>
    <linearGradient id="bg" x1="40" y1="30" x2="470" y2="490" gradientUnits="userSpaceOnUse"><stop stop-color="#171b36"/><stop offset="1" stop-color="#080a14"/></linearGradient>
    <linearGradient id="mn" x1="94" y1="126" x2="410" y2="382" gradientUnits="userSpaceOnUse"><stop stop-color="#b49cff"/><stop offset=".47" stop-color="#7c5cff"/><stop offset="1" stop-color="#27d5ff"/></linearGradient>
    <linearGradient id="cube" x1="310" y1="64" x2="462" y2="200" gradientUnits="userSpaceOnUse"><stop stop-color="#ff4fc8"/><stop offset="1" stop-color="#ff9d4d"/></linearGradient>
  </defs>
  <rect x="12" y="12" width="488" height="488" rx="112" fill="url(#bg)" stroke="#31385f" stroke-width="12"/>
  <path d="M92 367V145h55l72 102 72-102h53v222h-64V246l-61 84-62-84v121H92Z" fill="url(#mn)"/>
  <path d="M315 205v162h64V253l51 114h69L412 205h-97Z" fill="url(#mn)" opacity=".92"/>
  <path d="m359 80 55-28 55 28-55 29-55-29Zm0 14 48 25v61l-48-26V94Zm110 0v60l-48 26v-61l48-25Z" fill="url(#cube)"/>
</svg>
